[Header]
FileType HTR
DataType HTRS
FileVersion 1
NumSegments 64
NumFrames 4
DataFrameRate 24
EulerRotationOrder ZYX
CalibrationUnits mm
RotationUnits Degrees
GlobalAxisofGravity Y
BoneLengthAxis Y
ScaleFactor 1.0
[SegmentNames&Hierarchy]
Hips	GLOBAL
Spine	Hips
Spine1	Spine
Spine2	Spine1
Neck	Spine2
Head	Neck
LeftEye	Head
RightEye	Head
LeftShoulder	Spine2
LeftArm	LeftShoulder
LeftForeArm	LeftArm
LeftHand	LeftForeArm
LeftHandThumb1	LeftHand
LeftHandThumb2	LeftHandThumb1
LeftHandThumb3	LeftHandThumb2
LeftHandThumb4	LeftHandThumb3
LeftHandIndex1	LeftHand
LeftHandIndex2	LeftHandIndex1
LeftHandIndex3	LeftHandIndex2
LeftHandIndex4	LeftHandIndex3
LeftHandMiddle1	LeftHand
LeftHandMiddle2	LeftHandMiddle1
LeftHandMiddle3	LeftHandMiddle2
LeftHandMiddle4	LeftHandMiddle3
LeftHandRing1	LeftHand
LeftHandRing2	LeftHandRing1
LeftHandRing3	LeftHandRing2
LeftHandRing4	LeftHandRing3
LeftHandPinky1	LeftHand
LeftHandPinky2	LeftHandPinky1
LeftHandPinky3	LeftHandPinky2
LeftHandPinky4	LeftHandPinky3
RightShoulder	Spine2
RightArm	RightShoulder
RightForeArm	RightArm
RightHand	RightForeArm
RightHandPinky1	RightHand
RightHandPinky2	RightHandPinky1
RightHandPinky3	RightHandPinky2
RightHandPinky4	RightHandPinky3
RightHandRing1	RightHand
RightHandRing2	RightHandRing1
RightHandRing3	RightHandRing2
RightHandRing4	RightHandRing3
RightHandMiddle1	RightHand
RightHandMiddle2	RightHandMiddle1
RightHandMiddle3	RightHandMiddle2
RightHandMiddle4	RightHandMiddle3
RightHandIndex1	RightHand
RightHandIndex2	RightHandIndex1
RightHandIndex3	RightHandIndex2
RightHandIndex4	RightHandIndex3
RightHandThumb1	RightHand
RightHandThumb2	RightHandThumb1
RightHandThumb3	RightHandThumb2
RightHandThumb4	RightHandThumb3
LeftUpLeg	Hips
LeftLeg	LeftUpLeg
LeftFoot	LeftLeg
LeftToeBase	LeftFoot
RightUpLeg	Hips
RightLeg	RightUpLeg
RightFoot	RightLeg
RightToeBase	RightFoot
[BasePosition]
Hips	0	0	0	0	0	0	1
Spine	0	0	0	0	0	0	1
Spine1	0	0	0	0	0	0	1
Spine2	0	0	0	0	0	0	1
Neck	0	0	0	0	0	0	1
Head	0	0	0	0	0	0	1
LeftEye	0	0	0	0	0	0	1
RightEye	0	0	0	0	0	0	1
LeftShoulder	0	0	0	0	0	0	1
LeftArm	0	0	0	0	0	0	1
LeftForeArm	0	0	0	0	0	0	1
LeftHand	0	0	0	0	0	0	1
LeftHandThumb1	0	0	0	0	0	0	1
LeftHandThumb2	0	0	0	0	0	0	1
LeftHandThumb3	0	0	0	0	0	0	1
LeftHandThumb4	0	0	0	0	0	0	1
LeftHandIndex1	0	0	0	0	0	0	1
LeftHandIndex2	0	0	0	0	0	0	1
LeftHandIndex3	0	0	0	0	0	0	1
LeftHandIndex4	0	0	0	0	0	0	1
LeftHandMiddle1	0	0	0	0	0	0	1
LeftHandMiddle2	0	0	0	0	0	0	1
LeftHandMiddle3	0	0	0	0	0	0	1
LeftHandMiddle4	0	0	0	0	0	0	1
LeftHandRing1	0	0	0	0	0	0	1
LeftHandRing2	0	0	0	0	0	0	1
LeftHandRing3	0	0	0	0	0	0	1
LeftHandRing4	0	0	0	0	0	0	1
LeftHandPinky1	0	0	0	0	0	0	1
LeftHandPinky2	0	0	0	0	0	0	1
LeftHandPinky3	0	0	0	0	0	0	1
LeftHandPinky4	0	0	0	0	0	0	1
RightShoulder	0	0	0	0	0	0	1
RightArm	0	0	0	0	0	0	1
RightForeArm	0	0	0	0	0	0	1
RightHand	0	0	0	0	0	0	1
RightHandPinky1	0	0	0	0	0	0	1
RightHandPinky2	0	0	0	0	0	0	1
RightHandPinky3	0	0	0	0	0	0	1
RightHandPinky4	0	0	0	0	0	0	1
RightHandRing1	0	0	0	0	0	0	1
RightHandRing2	0	0	0	0	0	0	1
RightHandRing3	0	0	0	0	0	0	1
RightHandRing4	0	0	0	0	0	0	1
RightHandMiddle1	0	0	0	0	0	0	1
RightHandMiddle2	0	0	0	0	0	0	1
RightHandMiddle3	0	0	0	0	0	0	1
RightHandMiddle4	0	0	0	0	0	0	1
RightHandIndex1	0	0	0	0	0	0	1
RightHandIndex2	0	0	0	0	0	0	1
RightHandIndex3	0	0	0	0	0	0	1
RightHandIndex4	0	0	0	0	0	0	1
RightHandThumb1	0	0	0	0	0	0	1
RightHandThumb2	0	0	0	0	0	0	1
RightHandThumb3	0	0	0	0	0	0	1
RightHandThumb4	0	0	0	0	0	0	1
LeftUpLeg	0	0	0	0	0	0	1
LeftLeg	0	0	0	0	0	0	1
LeftFoot	0	0	0	0	0	0	1
LeftToeBase	0	0	0	0	0	0	1
RightUpLeg	0	0	0	0	0	0	1
RightLeg	0	0	0	0	0	0	1
RightFoot	0	0	0	0	0	0	1
RightToeBase	0	0	0	0	0	0	1
[Hips]
28	-15.14273167	885.5020752	-11.77180386	-7.512864113	0.6045128703	1.540809751	1.0
29	-15.94503498	893.5272217	-8.563761711	-7.851718426	1.90410471	0.4670488238	1.0
30	-18.82442284	912.6856689	-4.033884048	-8.66772747	5.001692772	-0.9603769183	1.0
31	-23.97336006	935.9157715	1.630431652	-9.834806442	9.24179554	-2.316239357	1.0
[Spine]
28	9.234152094e-05	101.8158798	1.31520927	10.99614525	-0.2952511907	-2.93404603	1.0
29	9.234152094e-05	101.8158798	1.31520927	9.840008736	-0.5659885406	-4.14071703	1.0
30	9.234152094e-05	101.8158798	1.31520927	8.784994125	-0.7416001558	-5.748720646	1.0
31	9.234152094e-05	101.8158798	1.31520927	8.178595543	-0.8084453344	-7.719788074	1.0
[Spine1]
28	2.519402869e-06	100.8345108	-10.00804329	-3.45119524	-0.3346682787	1.623194456	1.0
29	2.519402869e-06	100.8345108	-10.00804329	-2.864946604	-0.4227395952	1.471047878	1.0
30	2.519402869e-06	100.8345108	-10.00804329	-1.94007647	-0.4869980514	0.982583642	1.0
31	2.519402869e-06	100.8345108	-10.00804329	-0.748187542	-0.5220137239	0.1118703559	1.0
[Spine2]
28	3.4574864e-06	91.00010681	-13.73417091	-3.630930185	-0.9290193319	-1.224492431	1.0
29	3.4574864e-06	91.00010681	-13.73417091	-3.51913023	-0.9565746784	-1.093540311	1.0
30	3.4574864e-06	91.00010681	-13.73417091	-3.353286743	-0.9290491939	-1.127346158	1.0
31	3.4574864e-06	91.00010681	-13.73417091	-3.10484004	-0.8646389246	-1.427607417	1.0
[Neck]
28	6.334285445e-06	166.7166901	-25.16167831	8.839355469	0.612822473	-1.086396217	1.0
29	6.334285445e-06	166.7166901	-25.16167831	8.991261482	0.6818855405	-1.316328168	1.0
30	6.334285445e-06	166.7166901	-25.16167831	9.227876663	0.6762391329	-1.542136669	1.0
31	6.334285445e-06	166.7166901	-25.16167831	9.460259438	0.6245687604	-1.718601346	1.0
[Head]
28	-4.242318937e-06	96.17874908	16.85007477	8.314455986	3.752284288	0.001008745399	1.0
29	-4.242318937e-06	96.17874908	16.85007477	9.244958878	3.890055656	0.04753933847	1.0
30	-4.242318937e-06	96.17874908	16.85007477	10.80659103	3.271121979	-0.0864436999	1.0
31	-4.242318937e-06	96.17874908	16.85007477	11.86912727	2.276990175	-0.1472806334	1.0
[LeftEye]
28	30.67560577	64.09507751	92.83554077	0	0	0	1.0
29	30.67560577	64.09507751	92.83554077	0	0	0	1.0
30	30.67560577	64.09507751	92.83554077	0	0	0	1.0
31	30.67560577	64.09507751	92.83554077	0	0	0	1.0
[RightEye]
28	-30.67550468	64.09500122	92.83547211	0	0	0	1.0
29	-30.67550468	64.09500122	92.83547211	0	0	0	1.0
30	-30.67550468	64.09500122	92.83547211	0	0	0	1.0
31	-30.67550468	64.09500122	92.83547211	0	0	0	1.0
[LeftShoulder]
28	45.70446396	109.4598465	-26.27988052	26.4367485	-7.763204575	11.52749062	1.0
29	45.70446396	109.4598465	-26.27988052	25.83551788	-6.117905617	12.24815845	1.0
30	45.70446396	109.4598465	-26.27988052	24.52705574	-5.319487095	10.67350292	1.0
31	45.70446396	109.4598465	-26.27988052	22.78024864	-6.300291538	4.952904224	1.0
[LeftArm]
28	105.9236984	-5.245829105	-22.32120132	-86.46972656	-0.1396372765	31.06907272	1.0
29	105.9236984	-5.245829105	-22.32120132	-87.09610748	-1.127065301	31.11133766	1.0
30	105.9236984	-5.245829105	-22.32120132	-84.70064545	-3.528972387	30.84838486	1.0
31	105.9236984	-5.245829105	-22.32120132	-80.62400818	-5.238059044	29.75258064	1.0
[LeftForeArm]
28	278.4151917	-0.0008942864952	0.0003745891154	-45.8194313	-78.05200958	56.52050781	1.0
29	278.4151917	-0.0008942864952	0.0003745891154	-39.23136139	-77.68321228	51.696064	1.0
30	278.4151917	-0.0008942864952	0.0003745891154	-28.00327492	-74.01931	42.82786942	1.0
31	278.4151917	-0.0008942864952	0.0003745891154	-19.98031044	-68.38535309	35.42563629	1.0
[LeftHand]
28	283.2883911	-0.0001744071778	0.0003780452244	-74.39620972	-51.98315811	-20.51376724	1.0
29	283.2883911	-0.0001744071778	0.0003780452244	-74.38235474	-51.88533783	-21.21213913	1.0
30	283.2883911	-0.0001744071778	0.0003780452244	-74.14067078	-52.63225174	-18.38012123	1.0
31	283.2883911	-0.0001744071778	0.0003780452244	-73.76718903	-54.09864426	-12.95940018	1.0
[LeftHandThumb1]
28	24.66140366	-15.7504921	26.82413483	-23.44759369	13.24601364	-8.514710426	1.0
29	24.66140366	-15.7504921	26.82413483	-21.93988037	12.71835804	-7.384522915	1.0
30	24.66140366	-15.7504921	26.82413483	-17.74207306	11.08766556	-4.250440598	1.0
31	24.66140366	-15.7504921	26.82413483	-12.10780239	8.50821209	-0.08862165362	1.0
[LeftHandThumb2]
28	32.29803848	-18.6469059	18.64681244	3.611284018	27.21359444	8.369533539	1.0
29	32.29803848	-18.6469059	18.64681244	4.403337955	27.11791801	8.807333946	1.0
30	32.29803848	-18.6469059	18.64681244	6.645572186	26.82092667	10.02448368	1.0
31	32.29803848	-18.6469059	18.64681244	9.74764061	26.34701347	11.65544701	1.0
[LeftHandThumb3]
28	26.52565002	-15.31492996	15.31471634	-2.983345747	25.38546181	15.49712563	1.0
29	26.52565002	-15.31492996	15.31471634	-2.415648699	24.86066437	15.89016056	1.0
30	26.52565002	-15.31492996	15.31471634	-0.8299211264	23.35933876	16.97040558	1.0
31	26.52565002	-15.31492996	15.31471634	1.315521002	21.24239731	18.38836098	1.0
[LeftHandThumb4]
28	19.54566956	-11.2850008	11.28492165	0	0	0	1.0
29	19.54566956	-11.2850008	11.28492165	0	0	0	1.0
30	19.54566956	-11.2850008	11.28492165	0	0	0	1.0
31	19.54566956	-11.2850008	11.28492165	0	0	0	1.0
[LeftHandIndex1]
28	91.09301758	-5.170834064	22.6007309	0.06520100683	7.341281891	-37.044487	1.0
29	91.09301758	-5.170834064	22.6007309	0.0330004096	7.349059105	-35.69247437	1.0
30	91.09301758	-5.170834064	22.6007309	-0.06932552159	7.354261875	-31.85485077	1.0
31	91.09301758	-5.170834064	22.6007309	-0.2384686619	7.326170921	-26.51649666	1.0
[LeftHandIndex2]
28	36.76409531	-6.939138257e-05	0.0002924251603	1.958876252	0.8592692018	-5.670902252	1.0
29	36.76409531	-6.939138257e-05	0.0002924251603	1.949357986	0.8900136948	-6.008563995	1.0
30	36.76409531	-6.939138257e-05	0.0002924251603	1.921237826	0.9771618843	-6.96710968	1.0
31	36.76409531	-6.939138257e-05	0.0002924251603	1.879422545	1.098098278	-8.300888062	1.0
[LeftHandIndex3]
28	28.83062553	0.000385119667	-0.0004276481632	1.801153302	1.43335104	-12.53112984	1.0
29	28.83062553	0.000385119667	-0.0004276481632	1.749195337	1.424331307	-12.47998619	1.0
30	28.83062553	0.000385119667	-0.0004276481632	1.601685405	1.398728848	-12.33485699	1.0
31	28.83062553	0.000385119667	-0.0004276481632	1.39638412	1.363098741	-12.13288212	1.0
[LeftHandIndex4]
28	23.92720032	0.0003702590766	0.0003355443478	0	0	0	1.0
29	23.92720032	0.0003702590766	0.0003355443478	0	0	0	1.0
30	23.92720032	0.0003702590766	0.0003355443478	0	0	0	1.0
31	23.92720032	0.0003702590766	0.0003355443478	0	0	0	1.0
[LeftHandMiddle1]
28	95.33401489	-0.000339240476	0.0001393702551	0.2828536034	7.378559113	-39.97829056	1.0
29	95.33401489	-0.000339240476	0.0001393702551	0.3243451416	7.22173214	-38.521492	1.0
30	95.33401489	-0.000339240476	0.0001393702551	0.4309366047	6.756837845	-34.39077377	1.0
31	95.33401489	-0.000339240476	0.0001393702551	0.5463309288	6.066681385	-28.65463638	1.0
[LeftHandMiddle2]
28	36.98236847	1.961359158e-05	0.0001791696704	-9.022661209	2.316248894	-5.741249561	1.0
29	36.98236847	1.961359158e-05	0.0001791696704	-8.643279076	2.247282505	-5.896065235	1.0
30	36.98236847	1.961359158e-05	0.0001791696704	-7.566576481	2.051222324	-6.335359573	1.0
31	36.98236847	1.961359158e-05	0.0001791696704	-6.068732262	1.779006362	-6.946640968	1.0
[LeftHandMiddle3]
28	29.50921631	-0.0003937608562	0.0001644795993	0.5381020904	2.578637838	-23.88411331	1.0
29	29.50921631	-0.0003937608562	0.0001644795993	0.5208439231	2.514402866	-23.27923584	1.0
30	29.50921631	-0.0003937608562	0.0001644795993	0.4686136246	2.330580711	-21.56251526	1.0
31	29.50921631	-0.0003937608562	0.0001644795993	0.3877524137	2.071904421	-19.17462349	1.0
[LeftHandMiddle4]
28	28.3390255	-0.0003893481917	-9.504223272e-05	0	0	0	1.0
29	28.3390255	-0.0003893481917	-9.504223272e-05	0	0	0	1.0
30	28.3390255	-0.0003893481917	-9.504223272e-05	0	0	0	1.0
31	28.3390255	-0.0003893481917	-9.504223272e-05	0	0	0	1.0
[LeftHandRing1]
28	91.04527283	-0.4393950403	-18.65084648	-4.056101322	9.703158379	-29.61440468	1.0
29	91.04527283	-0.4393950403	-18.65084648	-3.956234217	9.427772522	-28.64460754	1.0
30	91.04527283	-0.4393950403	-18.65084648	-3.678550482	8.638635635	-25.89641571	1.0
31	91.04527283	-0.4393950403	-18.65084648	-3.31138134	7.522850513	-22.08436775	1.0
[LeftHandRing2]
28	31.54026794	-6.55346812e-05	0.000104257444	-11.20356178	-0.8796516657	-15.05614758	1.0
29	31.54026794	-6.55346812e-05	0.000104257444	-10.91212749	-0.7916356325	-15.28742981	1.0
30	31.54026794	-6.55346812e-05	0.000104257444	-10.08525467	-0.5422430038	-15.94414139	1.0
31	31.54026794	-6.55346812e-05	0.000104257444	-8.936057091	-0.1948685795	-16.8577137	1.0
[LeftHandRing3]
28	29.37672424	-0.0004545861739	-6.864757597e-05	-9.31008625	0.2612287104	-17.89259529	1.0
29	29.37672424	-0.0004545861739	-6.864757597e-05	-9.007492065	0.2988813221	-17.66102409	1.0
30	29.37672424	-0.0004545861739	-6.864757597e-05	-8.149015427	0.4059530795	-17.00363922	1.0
31	29.37672424	-0.0004545861739	-6.864757597e-05	-6.955571651	0.5538178086	-16.08861542	1.0
[LeftHandRing4]
28	26.47452545	-0.0004980441299	7.070515267e-07	0	0	0	1.0
29	26.47452545	-0.0004980441299	7.070515267e-07	0	0	0	1.0
30	26.47452545	-0.0004980441299	7.070515267e-07	0	0	0	1.0
31	26.47452545	-0.0004980441299	7.070515267e-07	0	0	0	1.0
[LeftHandPinky1]
28	80.77777863	-4.886682034	-38.06066895	-22.97526169	11.36110115	-41.33749008	1.0
29	80.77777863	-4.886682034	-38.06066895	-22.19610596	11.02502251	-39.82011414	1.0
30	80.77777863	-4.886682034	-38.06066895	-19.99544144	10.05456543	-35.52213669	1.0
31	80.77777863	-4.886682034	-38.06066895	-16.97293282	8.645702362	-29.57008171	1.0
[LeftHandPinky2]
28	36.00034332	-2.252215199e-05	-0.0002623879409	11.20576382	-6.475241661	-11.83747959	1.0
29	36.00034332	-2.252215199e-05	-0.0002623879409	10.66367149	-6.126220226	-11.90127468	1.0
30	36.00034332	-2.252215199e-05	-0.0002623879409	9.125982285	-5.135352612	-12.08177471	1.0
31	36.00034332	-2.252215199e-05	-0.0002623879409	6.988948345	-3.757100582	-12.33550549	1.0
[LeftHandPinky3]
28	21.14211655	0.0001953828178	-2.864415183e-05	-21.48991585	9.582217216	-13.07691479	1.0
29	21.14211655	0.0001953828178	-2.864415183e-05	-20.70494652	9.216000557	-13.27632236	1.0
30	21.14211655	0.0001953828178	-2.864415183e-05	-18.47544479	8.175755501	-13.84013653	1.0
31	21.14211655	0.0001953828178	-2.864415183e-05	-15.37017822	6.729938984	-14.6255188	1.0
[LeftHandPinky4]
28	19.7568264	0.0001240565616	-0.0004430140834	0	0	0	1.0
29	19.7568264	0.0001240565616	-0.0004430140834	0	0	0	1.0
30	19.7568264	0.0001240565616	-0.0004430140834	0	0	0	1.0
31	19.7568264	0.0001240565616	-0.0004430140834	0	0	0	1.0
[RightShoulder]
28	-45.69969559	109.4617615	-26.28017426	25.65288162	7.381083488	-15.35780811	1.0
29	-45.69969559	109.4617615	-26.28017426	24.29586601	5.422681808	-13.44540691	1.0
30	-45.69969559	109.4617615	-26.28017426	22.21706009	2.707088709	-11.76200676	1.0
31	-45.69969559	109.4617615	-26.28017426	19.89206696	0.2068388313	-11.08944511	1.0
[RightArm]
28	-105.9284363	-5.247983932	-22.32098579	-93.56601715	8.565401077	-27.5148468	1.0
29	-105.9284363	-5.247983932	-22.32098579	-94.18706512	9.540520668	-28.30457687	1.0
30	-105.9284363	-5.247983932	-22.32098579	-94.36369324	11.02901745	-28.7514286	1.0
31	-105.9284363	-5.247983932	-22.32098579	-94.77346039	12.37048149	-29.26499939	1.0
[RightForeArm]
28	-278.4151917	-0.0003307921579	0.0001167631053	-103.2631454	89.51156616	-94.27297211	1.0
29	-278.4151917	-0.0003307921579	0.0001167631053	-55.4421196	88.20393372	-47.51527405	1.0
30	-278.4151917	-0.0003307921579	0.0001167631053	-39.26815033	81.61044312	-33.61495209	1.0
31	-278.4151917	-0.0003307921579	0.0001167631053	-30.87622643	73.48645782	-27.68088341	1.0
[RightHand]
28	-283.2883911	-1.581417109e-06	0.000558160129	-65.14149475	42.49414444	22.01604462	1.0
29	-283.2883911	-1.581417109e-06	0.000558160129	-65.23301697	42.71211624	20.23101044	1.0
30	-283.2883911	-1.581417109e-06	0.000558160129	-65.3948822	42.79492188	18.16023445	1.0
31	-283.2883911	-1.581417109e-06	0.000558160129	-65.55023193	42.70697403	15.7497406	1.0
[RightHandPinky1]
28	-80.76674652	-4.88459301	-38.06010437	-23.26607513	-10.75587559	42.09517288	1.0
29	-80.76674652	-4.88459301	-38.06010437	-23.43795395	-10.8259325	42.43937302	1.0
30	-80.76674652	-4.88459301	-38.06010437	-23.33005333	-10.78197575	42.2232933	1.0
31	-80.76674652	-4.88459301	-38.06010437	-22.98519897	-10.64078236	41.53238297	1.0
[RightHandPinky2]
28	-36.00034332	0.0003967665543	0.0005081442068	11.70423317	7.029396057	11.639184	1.0
29	-36.00034332	0.0003967665543	0.0005081442068	11.82677841	7.108135223	11.62310886	1.0
30	-36.00034332	0.0003967665543	0.0005081442068	11.749856	7.058703423	11.63321209	1.0
31	-36.00034332	0.0003967665543	0.0005081442068	11.50380611	6.900639057	11.66548061	1.0
[RightHandPinky3]
28	-21.14211655	0.0001513792522	0.0001479376951	-22.17370415	-9.638834953	13.1001358	1.0
29	-21.14211655	0.0001513792522	0.0001479376951	-22.35186958	-9.722665787	13.05674171	1.0
30	-21.14211655	0.0001513792522	0.0001479376951	-22.24002838	-9.670050621	13.08394718	1.0
31	-21.14211655	0.0001513792522	0.0001479376951	-21.882267	-9.5017519	13.17115116	1.0
[RightHandPinky4]
28	-19.7568264	-0.000185219571	-9.839841368e-06	0	0	0	1.0
29	-19.7568264	-0.000185219571	-9.839841368e-06	0	0	0	1.0
30	-19.7568264	-0.000185219571	-9.839841368e-06	0	0	0	1.0
31	-19.7568264	-0.000185219571	-9.839841368e-06	0	0	0	1.0
[RightHandRing1]
28	-91.03588104	-0.4391434789	-18.65072441	-3.913894176	-9.229153633	29.8906517	1.0
29	-91.03588104	-0.4391434789	-18.65072441	-3.93430686	-9.287379265	30.11109734	1.0
30	-91.03588104	-0.4391434789	-18.65072441	-3.921504021	-9.250835419	29.97271538	1.0
31	-91.03588104	-0.4391434789	-18.65072441	-3.88066411	-9.133765221	29.53014183	1.0
[RightHandRing2]
28	-31.54026794	0.0002399729856	0.0004885121016	-11.42294693	1.26385653	14.82825375	1.0
29	-31.54026794	0.0002399729856	0.0004885121016	-11.489254	1.282728076	14.77548599	1.0
30	-31.54026794	0.0002399729856	0.0004885121016	-11.4476223	1.270871043	14.80862427	1.0
31	-31.54026794	0.0002399729856	0.0004885121016	-11.31450176	1.232971787	14.91455364	1.0
[RightHandRing3]
28	-29.37672424	-0.0004160065437	-0.0003966063377	-9.519916534	0.1434082091	18.09918213	1.0
29	-29.37672424	-0.0004160065437	-0.0003966063377	-9.588124275	0.1529830694	18.15140343	1.0
30	-29.37672424	-0.0004160065437	-0.0003966063377	-9.545310974	0.146977216	18.1185894	1.0
31	-29.37672424	-0.0004160065437	-0.0003966063377	-9.408349037	0.1277509779	18.01370049	1.0
[RightHandRing4]
28	-26.47452545	0.0002460821415	-2.294923434e-05	0	0	0	1.0
29	-26.47452545	0.0002460821415	-2.294923434e-05	0	0	0	1.0
30	-26.47452545	0.0002460821415	-2.294923434e-05	0	0	0	1.0
31	-26.47452545	0.0002460821415	-2.294923434e-05	0	0	0	1.0
[RightHandMiddle1]
28	-95.32502747	-0.0001631230261	0.0001679184206	0.6342931986	-6.632699966	40.62591553	1.0
29	-95.32502747	-0.0001631230261	0.0001679184206	0.6292948723	-6.662408829	40.95586395	1.0
30	-95.32502747	-0.0001631230261	0.0001679184206	0.6324410439	-6.643781185	40.74874496	1.0
31	-95.32502747	-0.0001631230261	0.0001679184206	0.6423099637	-6.583786011	40.08627319	1.0
[RightHandMiddle2]
28	-36.98236847	0.000150669599	-0.0002254552383	-9.354980469	-2.260354519	5.651813984	1.0
29	-36.98236847	0.000150669599	-0.0002254552383	-9.440968513	-2.276696444	5.61707449	1.0
30	-36.98236847	0.000150669599	-0.0002254552383	-9.386991501	-2.266439676	5.638872623	1.0
31	-36.98236847	0.000150669599	-0.0002254552383	-9.214323044	-2.233634233	5.7085886	1.0
[RightHandMiddle3]
28	-29.50921631	-3.113244929e-06	-3.03402544e-06	0.6590872407	-2.143127203	24.46694946	1.0
29	-29.50921631	-3.113244929e-06	-3.03402544e-06	0.6639655232	-2.154974937	24.60410309	1.0
30	-29.50921631	-3.113244929e-06	-3.03402544e-06	0.6608918905	-2.147527695	24.51797485	1.0
31	-29.50921631	-3.113244929e-06	-3.03402544e-06	0.6510387063	-2.123710632	24.24256706	1.0
[RightHandMiddle4]
28	-28.3390255	8.05324089e-05	0.0005378770875	0	0	0	1.0
29	-28.3390255	8.05324089e-05	0.0005378770875	0	0	0	1.0
30	-28.3390255	8.05324089e-05	0.0005378770875	0	0	0	1.0
31	-28.3390255	8.05324089e-05	0.0005378770875	0	0	0	1.0
[RightHandIndex1]
28	-91.08280945	-5.167889595	22.60116386	0.4367960691	-6.49303627	37.60155106	1.0
29	-91.08280945	-5.167889595	22.60116386	0.4480180442	-6.48576498	37.90703964	1.0
30	-91.08280945	-5.167889595	22.60116386	0.4409809709	-6.490344524	37.71528244	1.0
31	-91.08280945	-5.167889595	22.60116386	0.418315351	-6.504665852	37.10182571	1.0
[RightHandIndex2]
28	-36.76409531	0.0001922715601	0.0003235567128	1.972315192	-0.7199375033	5.386998177	1.0
29	-36.76409531	0.0001922715601	0.0003235567128	1.974252939	-0.7145569921	5.310410976	1.0
30	-36.76409531	0.0001922715601	0.0003235567128	1.973040938	-0.7179328203	5.358485699	1.0
31	-36.76409531	0.0001922715601	0.0003235567128	1.969123125	-0.7287307382	5.512236595	1.0
[RightHandIndex3]
28	-28.83062553	-0.0004960121587	0.0004044897505	1.875734806	-1.180948615	12.60325718	1.0
29	-28.83062553	-0.0004960121587	0.0004044897505	1.887545824	-1.18275094	12.6148653	1.0
30	-28.83062553	-0.0004960121587	0.0004044897505	1.880131841	-1.181617856	12.60757065	1.0
31	-28.83062553	-0.0004960121587	0.0004044897505	1.856408	-1.177993298	12.58425522	1.0
[RightHandIndex4]
28	-23.92720032	0.0002681470069	0.0002802013478	0	0	0	1.0
29	-23.92720032	0.0002681470069	0.0002802013478	0	0	0	1.0
30	-23.92720032	0.0002681470069	0.0002802013478	0	0	0	1.0
31	-23.92720032	0.0002681470069	0.0002802013478	0	0	0	1.0
[RightHandThumb1]
28	-24.64805984	-15.72714233	26.82626534	-26.01445007	-11.09761047	9.486280441	1.0
29	-24.64805984	-15.72714233	26.82626534	-26.35734367	-11.19589329	9.736880302	1.0
30	-24.64805984	-15.72714233	26.82626534	-26.14204025	-11.13435745	9.579514503	1.0
31	-24.64805984	-15.72714233	26.82626534	-25.45493126	-10.93389606	9.07762146	1.0
[RightHandThumb2]
28	-32.29771805	-18.6470871	18.64718437	3.705521107	-28.93980408	-9.151232719	1.0
29	-32.29771805	-18.6470871	18.64718437	3.52243042	-28.95944977	-9.049417496	1.0
30	-32.29771805	-18.6470871	18.64718437	3.637383461	-28.94714737	-9.113366127	1.0
31	-32.29771805	-18.6470871	18.64718437	4.004892349	-28.90714455	-9.317261696	1.0
[RightHandThumb3]
28	-26.52605057	-15.31449318	15.31445599	0.3549139202	-31.24948311	-16.5123291	1.0
29	-26.52605057	-15.31449318	15.31445599	0.2201866806	-31.36940384	-16.40745926	1.0
30	-26.52605057	-15.31449318	15.31445599	0.3047868013	-31.29415703	-16.47333145	1.0
31	-26.52605057	-15.31449318	15.31445599	0.5745030046	-31.05303764	-16.68297195	1.0
[RightHandThumb4]
28	-19.54580498	-11.28461742	11.28507042	0	0	0	1.0
29	-19.54580498	-11.28461742	11.28507042	0	0	0	1.0
30	-19.54580498	-11.28461742	11.28507042	0	0	0	1.0
31	-19.54580498	-11.28461742	11.28507042	0	0	0	1.0
[LeftUpLeg]
28	82.07781982	-67.51714325	-15.99555588	-22.18782806	16.57832146	13.43280125	1.0
29	82.07781982	-67.51714325	-15.99555588	-21.49965286	15.23341751	14.19972038	1.0
30	82.07781982	-67.51714325	-15.99555588	-19.47002792	12.90627289	15.25461578	1.0
31	82.07781982	-67.51714325	-15.99555588	-16.84246826	9.95410347	16.1846714	1.0
[LeftLeg]
28	-4.110157988e-06	-443.7047119	2.846426487	62.85022736	4.169844627	-6.482803345	1.0
29	-4.110157988e-06	-443.7047119	2.846426487	61.5254097	3.871282101	-6.267655373	1.0
30	-4.110157988e-06	-443.7047119	2.846426487	57.29868698	2.953181267	-6.757512093	1.0
31	-4.110157988e-06	-443.7047119	2.846426487	51.64284134	1.503806353	-7.656353951	1.0
[LeftFoot]
28	4.716393505e-06	-444.278717	-29.82190704	-29.1342659	-1.335841417	-3.487196445	1.0
29	4.716393505e-06	-444.278717	-29.82190704	-28.53863716	-1.120631337	-2.962037086	1.0
30	4.716393505e-06	-444.278717	-29.82190704	-26.30470657	-0.8836422563	-2.914175272	1.0
31	4.716393505e-06	-444.278717	-29.82190704	-23.1205349	-0.5229027271	-2.735797882	1.0
[LeftToeBase]
28	-2.960988058e-05	-87.28669739	107.1055984	-3.266345024	1.172309476e-05	1.461963052e-06	1.0
29	-2.960988058e-05	-87.28669739	107.1055984	-3.624308586	-3.683421937e-06	2.36070855e-06	1.0
30	-2.960988058e-05	-87.28669739	107.1055984	-3.829621792	-1.060598606e-06	2.923206921e-06	1.0
31	-2.960988058e-05	-87.28669739	107.1055984	-4.00433588	1.155358495e-05	9.126136433e-07	1.0
[RightUpLeg]
28	-82.07795715	-67.51662445	-15.99559402	-33.07241058	-42.01185226	-4.611936569	1.0
29	-82.07795715	-67.51662445	-15.99559402	-30.66078568	-42.22444534	-4.354689121	1.0
30	-82.07795715	-67.51662445	-15.99559402	-25.35443878	-41.22045517	-4.509020805	1.0
31	-82.07795715	-67.51662445	-15.99559402	-18.69491386	-38.16048813	-4.951719284	1.0
[RightLeg]
28	8.435572454e-07	-443.7053833	2.861563921	63.51156235	7.724647045	-6.752779484	1.0
29	8.435572454e-07	-443.7053833	2.861563921	61.29606247	6.940481186	-8.117857933	1.0
30	8.435572454e-07	-443.7053833	2.861563921	56.24087524	4.883862972	-10.47071648	1.0
31	8.435572454e-07	-443.7053833	2.861563921	50.15031433	1.479477167	-12.07099342	1.0
[RightFoot]
28	9.644581951e-06	-444.2773132	-29.83789063	-23.23728371	5.67787981	5.579255581	1.0
29	9.644581951e-06	-444.2773132	-29.83789063	-22.63632965	6.030409813	6.413975239	1.0
30	9.644581951e-06	-444.2773132	-29.83789063	-20.89676476	5.005315781	8.572820663	1.0
31	9.644581951e-06	-444.2773132	-29.83789063	-18.98040199	0.6917872429	11.33505821	1.0
[RightToeBase]
28	-2.360438157e-05	-87.28668976	107.1056061	-8.279697795e-05	5.64802892e-11	-0.0001312670502	1.0
29	-2.360438157e-05	-87.28668976	107.1056061	0.07554092258	-6.195689821e-06	3.319159077e-05	1.0
30	-2.360438157e-05	-87.28668976	107.1056061	-9.336576477e-05	-5.098429057e-12	-0.0001081724477	1.0
31	-2.360438157e-05	-87.28668976	107.1056061	0.2077650726	6.784906418e-06	-4.373961019e-06	1.0
[EndOfFile]
